<?xml version="1.0" encoding="utf-8"?>
<!-- Generator: Adobe Adobe Illustrator 24.2.0, SVG Export Plug-In . SVG Version: 6.00 Build 0)  -->
<svg version="1.1" xmlns="http://www.w3.org/2000/svg" xmlns:xlink="http://www.w3.org/1999/xlink" x="0px" y="0px"
	 viewBox="0 0 361 188" style="enable-background:new 0 0 361 188;" xml:space="preserve">
<style type="text/css">
	.st0{fill:#FFFFFF;stroke:#000000;stroke-miterlimit:10;}
	.st1{fill:#5D1F20;}
	.st2{fill:#8F293A;}
	.st3{fill:#571718;}
	.st4{fill:#8F3C3D;}
	.st5{fill:#B34656;}
	.st6{fill:#92979A;}
	.st7{opacity:0.2196;}
	.st8{fill:#F7F8F8;}
	.st9{fill:#3E4449;}
	.st10{fill:#FFFFFF;stroke:#FFFFFF;stroke-miterlimit:10;}
</style>
<g id="Ebene_1">
</g>
<g id="Ebene_2">
</g>
<g id="Ebene_2_Kopie">
	<path class="st1" d="M195.24,87.42c1,0.12,1.82,0.19,2.84,0.29c7.87,0.68,15.4,2.07,22.79,4.27c1.4,0.42,2.56,1.22,4.06,1.89
		c4.56,1.59,7.67,4.44,9.53,8.65c0.27,0.62,0.45,1.24,0.4,1.92c-0.31,4.13-5.9,10.83-9.98,11.95c-0.27,0.07-0.57,0.05-1.09,0.01
		c-11.94-3.74-24.04-4.69-36.2-5.51c-7.89-0.53-15.78-0.67-23.65-0.44c-10.63,0.31-21.24,1.04-31.84,1.97
		c-11.95,1.05-23.8,2.82-35.57,4.95c-12.8,2.32-25.51,5.14-37.97,9.07c-7.44,2.34-14.72,5.05-21.94,7.99
		c-3.74,1.52-6.98,3.86-10.79,5.66c-7.25,0.12-14.54-6.65-13.92-12.63c0.43-4.19,3.32-6.79,6.3-9.09c5.5-4.23,11.53-7.62,18.18-9.77
		c1.18-0.38,2.26-0.98,3.62-1.48c18.98-6.93,38.38-11.36,58.05-14.6c28.28-4.67,56.73-7,85.68-5.86c1.28,0.14,2.3,0.02,3.5,0.17
		c1.56,0.13,2.93,0.23,4.53,0.35C193.01,87.41,194.04,87.24,195.24,87.42z"/>
	<path class="st2" d="M209.6,88.6c1.44-5.8,5.26-9.46,9.96-12.26c7.14-4.26,14.36-8.37,21.58-12.5c8.36-4.79,16.76-9.5,25.11-14.31
		c6.8-3.92,13.53-7.97,20.33-11.9c8.43-4.87,16.9-9.65,25.33-14.51c6.72-3.87,13.45-7.72,20.08-11.75c2.67-1.62,5.28-1.97,8.09-0.75
		c3.91,1.7,7.75,3.57,11.7,5.19c2.03,0.83,3.04,2.15,3.06,4.5c-7.42,6.17-16.23,9.67-24.43,14.24
		c-10.04,5.6-20.18,11.05-30.47,16.17c-7.65,3.81-15.13,7.94-22.69,11.9c-9.01,4.72-18.11,9.27-27.02,14.18
		c-2.64,1.45-5.3,2.93-8.02,4.29c-4.46,2.22-7.6,5.93-10.41,9.92c-0.6,0.85-0.98,1.85-2.11,2.52c-1.92,0.53-3.55-0.14-5.44-0.34
		c-4.21-1.78-8.4-2.84-12.67-3.56C210.84,89.5,210.03,89.62,209.6,88.6z"/>
	<path class="st3" d="M231.07,93.6c-0.48,0.03-0.86-0.1-1.36-0.38c2.49-4.55,5.63-8.55,9.91-11.4c2.86-1.91,6.08-3.3,9.14-4.92
		c3.41-1.82,6.8-3.68,10.23-5.45c6.95-3.59,13.98-7.03,20.88-10.72c5.03-2.7,9.83-5.82,14.85-8.53c4.11-2.23,8.43-4.08,12.59-6.21
		c4.94-2.53,9.81-5.19,14.71-7.78c5.92-3.12,11.9-6.12,17.75-9.36c4.34-2.4,8.5-5.12,12.77-7.66c0.55-0.33,1.23-0.44,2.06-0.66
		c-0.36,1.15-0.62,2.86-1.54,3.37c-12,6.61-24.08,13.1-36.18,19.53c-12.01,6.37-24.06,12.66-36.1,18.96
		c-12.8,6.7-25.69,13.23-38.37,20.14C237.76,85.04,233.77,88.62,231.07,93.6z"/>
	<path class="st4" d="M224,115.92c-3.86,2.46-7.74,5.2-12.01,7.08c-16.65,7.36-34.11,12.13-52.02,15.16
		c-14.85,2.51-29.77,4.62-44.69,6.66c-5.72,0.78-11.54,1.16-17.31,1.24c-12.91,0.18-25.84,0.43-38.74-0.07
		c-11.46-0.45-22.84-2.11-33.96-5.92c6.66-3.55,13.28-7.4,20.32-10.21c7.61-3.03,15.49-5.56,23.46-7.46
		c12.22-2.92,24.55-5.45,36.94-7.5c10.15-1.68,20.42-2.83,30.69-3.51c14.19-0.94,28.42-1.6,42.63-1.65
		c8.66-0.03,17.37,1.02,25.99,2.16C211.53,112.71,217.64,114.47,224,115.92z"/>
	<path class="st5" d="M223.87,92.59c1.83,0.07,3.53,0.29,5.47,0.49c0.6,0.18,1.04,0.13,1.52,0.5c1.75,1.08,3.39,2.01,5.05,2.89
		c5.1,2.7,6.6,7.23,6.37,12.86c-0.41,0.18-1.07-0.04-1.12,0.05c-2.65,5.25-7.35,8.44-12.26,10.88c-8.62,4.29-17.44,8.29-26.48,11.58
		c-7.53,2.74-15.46,4.43-23.27,6.31c-7.91,1.91-15.85,3.74-23.87,5.15c-9.13,1.6-18.33,2.8-27.53,3.95
		c-8.64,1.08-17.29,2.13-25.97,2.73c-8.05,0.56-16.15,0.75-24.22,0.65c-10.53-0.13-21.12-0.18-31.57-1.28
		c-8.99-0.94-17.92-2.94-26.71-5.15c-4.89-1.23-9.51-3.71-13.19-7.8c-3.42-5.74-0.78-9.91,3.53-13.68c3.87-3.39,8.3-6.34,12.9-8.68
		c5.53-2.82,11.5-4.8,17.48-7.06c-3.84,2.03-7.96,3.86-11.93,5.94c-5.34,2.8-10.43,6-14.24,10.83c-2.99,3.79-1.18,10.01,3.93,12.94
		c2.19,1.26,4.62,2.11,7.15,3.17c1.77-0.17,3.22,0.32,4.69,0.7c11.19,2.88,22.55,4.48,34.12,4.74c5.23,0.12,10.43,0.7,15.67,0.58
		c15.79-0.36,31.51-1.48,47.21-3.21c15.15-1.67,30.12-4.38,44.98-7.71c14.79-3.31,29.28-7.65,43.08-14.02
		c3.1-1.43,5.95-3.38,9.31-4.84c4.34-1.62,7.18-4.55,8.94-8.45c1.75-3.89,0.15-8.36-3.57-10.68c-1.28-0.8-2.57-1.6-4.02-2.53
		C224.41,94.04,223.59,93.83,223.87,92.59z"/>
	<path class="st2" d="M242.13,109.38c0.64,7.21,0.27,14.17-2.29,20.72c-3.26,8.35-8.51,15.31-15.5,21.11
		c-10.55,8.74-23.33,12.58-35.96,16.41c-12.68,3.84-25.63,7.02-38.67,9.35c-12.78,2.28-25.79,3.41-38.75,4.5
		c-15.87,1.33-31.74,0.39-47.58-1.09c-10.84-1.01-21.5-2.81-31.12-8.23c-6.27-3.54-11.86-7.98-16.39-13.73
		c-5.07-6.43-8.68-13.44-9.94-21.84c0.56-0.53,1.11-0.32,1.53,0.07c5.76,5.31,12.96,7.44,20.34,9.09
		c9.12,2.04,18.39,2.88,27.69,3.65c9.7,0.8,19.41,0.62,29.1,0.42c13.97-0.29,27.9-1.23,41.78-3.02c10.95-1.41,21.89-2.84,32.74-4.87
		c16.29-3.05,32.4-6.88,48.01-12.51c8.85-3.19,17.62-6.67,25.36-12.26c2.96-2.14,5.61-4.51,7.73-7.48
		C240.6,109.11,240.92,107.45,242.13,109.38z"/>
	<path class="st5" d="M223.8,92.41c0.54,0.56,0.88,1.09,1.29,1.77c-5.15-1.33-10.33-2.95-15.59-4.23
		c-3.57-0.87-7.26-1.27-11.06-2.05c2.81,0.01,5.78,0.19,8.76,0.37c0.65,0.04,1.3,0.1,2.19,0.13c2.21,0.39,4.23,0.68,6.16,1.25
		C218.27,90.45,220.92,91.46,223.8,92.41z"/>
	<path class="st6" d="M187.27,86.74c-0.89,0.16-1.93,0.18-3.13,0.07C185.04,86.65,186.08,86.63,187.27,86.74z"/>
	<g class="st7">
		<path d="M21.02,130.53c0-9.2,6.19-14.49,13.14-14.49c3.6,0,6.48,1.61,8.39,3.6l-3.47,3.98c-1.36-1.27-2.8-1.91-4.75-1.91
			c-3.64,0-6.57,3.22-6.57,8.56c0,5.51,2.58,8.69,6.44,8.69c2.25,0,3.98-0.89,5.3-2.29l3.43,3.9c-2.42,2.75-5.47,4.07-8.94,4.07
			C26.95,144.64,21.02,139.86,21.02,130.53z"/>
		<path d="M45.46,133.58c0-6.99,4.96-11.02,10.3-11.02c5.38,0,10.34,4.03,10.34,11.02c0,6.99-4.96,11.06-10.34,11.06
			C50.42,144.64,45.46,140.58,45.46,133.58z M59.36,133.58c0-3.47-1.14-5.76-3.6-5.76c-2.46,0-3.6,2.29-3.6,5.76
			c0,3.52,1.14,5.76,3.6,5.76C58.22,139.35,59.36,137.1,59.36,133.58z"/>
		<path d="M70.42,123.08h5.34l0.47,2.63h0.17c1.74-1.7,3.86-3.14,6.74-3.14c4.58,0,6.53,3.26,6.53,8.52v13.05h-6.57v-12.2
			c0-2.92-0.76-3.81-2.46-3.81c-1.48,0-2.37,0.72-3.69,1.91v14.11h-6.53V123.08z"/>
		<path d="M95.79,136.34v-8.14h-2.84v-4.92l3.22-0.21l0.76-6.44h5.42v6.44h4.96v5.13h-4.96v8.05c0,2.37,1.1,3.26,2.67,3.26
			c0.68,0,1.4-0.08,1.95-0.3l1.02,4.58c-1.1,0.42-2.71,0.85-4.79,0.85C97.95,144.64,95.79,141.3,95.79,136.34z"/>
		<path d="M109.77,138.24c0-4.45,3.43-6.87,11.74-7.71c-0.17-1.74-1.06-2.75-3.22-2.75c-1.69,0-3.39,0.59-5.51,1.78l-2.29-4.24
			c2.75-1.7,5.76-2.75,9.07-2.75c5.42,0,8.47,3.01,8.47,9.62v11.95h-5.34l-0.47-2.12h-0.17c-1.74,1.57-3.64,2.63-6.02,2.63
			C112.19,144.64,109.77,141.76,109.77,138.24z M121.51,137.91v-3.35c-4.19,0.55-5.47,1.69-5.47,3.18c0,1.23,0.81,1.82,2.25,1.82
			C119.6,139.56,120.49,138.92,121.51,137.91z"/>
		<path d="M132.14,133.58c0-6.99,5.21-11.02,11.06-11.02c2.58,0,4.58,0.89,6.14,2.25l-3.05,4.03c-0.97-0.72-1.78-1.02-2.71-1.02
			c-2.92,0-4.75,2.29-4.75,5.76c0,3.52,1.95,5.76,4.53,5.76c1.4,0,2.58-0.51,3.64-1.31l2.54,4.11c-2.03,1.86-4.7,2.5-6.95,2.5
			C136.68,144.64,132.14,140.58,132.14,133.58z"/>
		<path d="M153.79,136.34v-8.14h-2.84v-4.92l3.22-0.21l0.76-6.44h5.42v6.44h4.96v5.13h-4.96v8.05c0,2.37,1.1,3.26,2.67,3.26
			c0.68,0,1.4-0.08,1.95-0.3l1.02,4.58c-1.1,0.42-2.71,0.85-4.79,0.85C155.95,144.64,153.79,141.3,153.79,136.34z"/>
		<path d="M178.57,131.17v-14.62h6.57v15.34c0,5.25,1.57,7.08,4.58,7.08c3.05,0,4.7-1.82,4.7-7.08v-15.34h6.31v14.62
			c0,9.32-3.69,13.48-11.02,13.48S178.57,140.49,178.57,131.17z"/>
		<path d="M204.42,141.46l2.75-3.69c1.95,1.53,3.86,2.03,5.51,2.03c1.78,0,2.5-0.64,2.5-1.65c0-1.27-1.78-1.82-4.03-2.67
			c-3.01-1.1-5.55-3.01-5.55-6.27c0-3.98,3.22-6.65,8.14-6.65c3.09,0,5.72,1.14,7.54,2.67l-2.8,3.69c-1.53-1.1-3.09-1.53-4.53-1.53
			c-1.53,0-2.25,0.59-2.25,1.53c0,1.1,1.19,1.61,3.86,2.46c3.22,1.02,5.76,2.92,5.76,6.4c0,3.86-3.05,6.87-8.77,6.87
			C209.76,144.64,206.54,143.54,204.42,141.46z"/>
	</g>
	<path class="st6" d="M195.29,87.32c-0.91,0.16-1.96,0.17-3.15,0.04C193.05,87.19,194.1,87.18,195.29,87.32z"/>
	<path class="st8" d="M339.82,19.9c-1.35,2.13-2.5,4.52-4.38,5.92c-4.24,3.17-9.07,5.38-14.43,5.9c-1.42,0.14-2.94-0.72-4.49-1.32
		c-0.18-2.46,1.23-4.01,2.78-5.18c4.12-3.12,8.65-5.54,13.82-6.41C335.34,18.45,337.67,18.18,339.82,19.9z"/>
	<path class="st9" d="M340.01,19.91c-3.51-1.39-6.92-0.67-10.22,0.58c-5.2,1.95-10.35,4.04-13.26,9.53
		c-0.43,0.06-0.83,0.01-1.12-0.2c-0.37-0.27-0.65-0.67-1.07-1.13c2.21-2.23,4.01-5.04,6.59-6.39c3.95-2.07,8.38-3.28,12.7-4.56
		c1.53-0.46,3.34-0.25,4.96,0.03C339.16,17.86,339.57,19.03,340.01,19.91z"/>
	<g>
		<path class="st10" d="M25.63,130.03c0-9.2,6.19-14.49,13.14-14.49c3.6,0,6.48,1.61,8.39,3.6l-3.47,3.98
			c-1.36-1.27-2.8-1.91-4.75-1.91c-3.64,0-6.57,3.22-6.57,8.56c0,5.51,2.58,8.69,6.44,8.69c2.25,0,3.98-0.89,5.3-2.29l3.43,3.9
			c-2.42,2.75-5.47,4.07-8.94,4.07C31.56,144.14,25.63,139.36,25.63,130.03z"/>
		<path class="st10" d="M50.07,133.08c0-6.99,4.96-11.02,10.3-11.02c5.38,0,10.34,4.03,10.34,11.02c0,6.99-4.96,11.06-10.34,11.06
			C55.03,144.14,50.07,140.08,50.07,133.08z M63.97,133.08c0-3.47-1.14-5.76-3.6-5.76c-2.46,0-3.6,2.29-3.6,5.76
			c0,3.52,1.14,5.76,3.6,5.76C62.83,138.85,63.97,136.6,63.97,133.08z"/>
		<path class="st10" d="M75.02,122.58h5.34l0.47,2.63H81c1.74-1.7,3.86-3.14,6.74-3.14c4.58,0,6.53,3.26,6.53,8.52v13.05h-6.57
			v-12.2c0-2.92-0.76-3.81-2.46-3.81c-1.48,0-2.37,0.72-3.69,1.91v14.11h-6.53V122.58z"/>
		<path class="st10" d="M100.4,135.84v-8.14h-2.84v-4.92l3.22-0.21l0.76-6.44h5.42v6.44h4.96v5.13h-4.96v8.05
			c0,2.37,1.1,3.26,2.67,3.26c0.68,0,1.4-0.08,1.95-0.3l1.02,4.58c-1.1,0.42-2.71,0.85-4.79,0.85
			C102.56,144.14,100.4,140.8,100.4,135.84z"/>
		<path class="st10" d="M114.38,137.74c0-4.45,3.43-6.87,11.74-7.71c-0.17-1.74-1.06-2.75-3.22-2.75c-1.69,0-3.39,0.59-5.51,1.78
			l-2.29-4.24c2.75-1.7,5.76-2.75,9.07-2.75c5.42,0,8.47,3.01,8.47,9.62v11.95h-5.34l-0.47-2.12h-0.17
			c-1.74,1.57-3.64,2.63-6.02,2.63C116.8,144.14,114.38,141.26,114.38,137.74z M126.12,137.41v-3.35c-4.19,0.55-5.47,1.69-5.47,3.18
			c0,1.23,0.81,1.82,2.25,1.82C124.21,139.06,125.1,138.42,126.12,137.41z"/>
		<path class="st10" d="M136.75,133.08c0-6.99,5.21-11.02,11.06-11.02c2.58,0,4.58,0.89,6.14,2.25l-3.05,4.03
			c-0.97-0.72-1.78-1.02-2.71-1.02c-2.92,0-4.75,2.29-4.75,5.76c0,3.52,1.95,5.76,4.53,5.76c1.4,0,2.58-0.51,3.64-1.31l2.54,4.11
			c-2.03,1.86-4.7,2.5-6.95,2.5C141.29,144.14,136.75,140.08,136.75,133.08z"/>
		<path class="st10" d="M158.4,135.84v-8.14h-2.84v-4.92l3.22-0.21l0.76-6.44h5.42v6.44h4.96v5.13h-4.96v8.05
			c0,2.37,1.1,3.26,2.67,3.26c0.68,0,1.4-0.08,1.95-0.3l1.02,4.58c-1.1,0.42-2.71,0.85-4.79,0.85
			C160.56,144.14,158.4,140.8,158.4,135.84z"/>
		<path class="st10" d="M183.18,130.67v-14.62h6.57v15.34c0,5.25,1.57,7.08,4.58,7.08c3.05,0,4.7-1.82,4.7-7.08v-15.34h6.31v14.62
			c0,9.32-3.69,13.48-11.02,13.48S183.18,139.99,183.18,130.67z"/>
		<path class="st10" d="M209.03,140.96l2.75-3.69c1.95,1.53,3.86,2.03,5.51,2.03c1.78,0,2.5-0.64,2.5-1.65
			c0-1.27-1.78-1.82-4.03-2.67c-3.01-1.1-5.55-3.01-5.55-6.27c0-3.98,3.22-6.65,8.14-6.65c3.09,0,5.72,1.14,7.54,2.67l-2.8,3.69
			c-1.53-1.1-3.09-1.53-4.53-1.53c-1.53,0-2.25,0.59-2.25,1.53c0,1.1,1.19,1.61,3.86,2.46c3.22,1.02,5.76,2.92,5.76,6.4
			c0,3.86-3.05,6.87-8.77,6.87C214.37,144.14,211.15,143.04,209.03,140.96z"/>
	</g>
</g>
</svg>
